<?xml version="1.0" encoding="iso-8859-1"?>
<!-- Generator: Adobe Illustrator 19.0.0, SVG Export Plug-In . SVG Version: 6.00 Build 0)  -->
<svg version="1.1" id="Layer_1" xmlns="http://www.w3.org/2000/svg" xmlns:xlink="http://www.w3.org/1999/xlink" x="0px" y="0px"
	 viewBox="0 0 512 512" style="enable-background:new 0 0 512 512;" xml:space="preserve">
<circle style="fill:#3E4959;" cx="256" cy="256" r="256"/>
<rect x="175.566" y="165.525" style="fill:#FFFFFF;" width="160.89" height="262.243"/>
<g>
	<path style="fill:#CCCBCA;" d="M197.893,217.012c-5.345,0-9.682,4.337-9.682,9.678v201.077h19.364V226.69
		C207.578,221.349,203.241,217.012,197.893,217.012z"/>
	<path style="fill:#CCCBCA;" d="M226.955,217.012c-5.355,0-9.692,4.337-9.692,9.678v201.077h19.367V226.69
		C236.633,221.349,232.299,217.012,226.955,217.012z"/>
	<path style="fill:#CCCBCA;" d="M256.003,217.012c-5.345,0-9.682,4.337-9.682,9.678v201.077h19.36V226.69
		C265.685,221.349,261.341,217.012,256.003,217.012z"/>
	<path style="fill:#CCCBCA;" d="M285.042,217.012c-5.345,0-9.682,4.337-9.682,9.678v201.077h19.37V226.69
		C294.734,221.349,290.393,217.012,285.042,217.012z"/>
	<path style="fill:#CCCBCA;" d="M314.097,217.012c-5.348,0-9.678,4.337-9.678,9.678v201.077h19.367V226.69
		C323.785,221.349,319.442,217.012,314.097,217.012z"/>
	<rect x="175.566" y="130.015" style="fill:#CCCBCA;" width="160.89" height="35.49"/>
	<circle style="fill:#CCCBCA;" cx="175.566" cy="165.525" r="35.49"/>
</g>
<circle style="fill:#FFFFFF;" cx="175.566" cy="165.525" r="22.571"/>
<g>
	<circle style="fill:#CCCBCA;" cx="175.566" cy="165.525" r="9.652"/>
	<circle style="fill:#CCCBCA;" cx="336.434" cy="165.525" r="35.49"/>
</g>
<circle style="fill:#FFFFFF;" cx="336.434" cy="165.525" r="22.571"/>
<circle style="fill:#CCCBCA;" cx="336.434" cy="165.525" r="9.652"/>
<rect x="140.057" y="110.658" style="fill:#FFFFFF;" width="231.853" height="19.367"/>
<g>
</g>
<g>
</g>
<g>
</g>
<g>
</g>
<g>
</g>
<g>
</g>
<g>
</g>
<g>
</g>
<g>
</g>
<g>
</g>
<g>
</g>
<g>
</g>
<g>
</g>
<g>
</g>
<g>
</g>
</svg>
