<?xml version="1.0" encoding="iso-8859-1"?>
<!-- Generator: Adobe Illustrator 19.0.0, SVG Export Plug-In . SVG Version: 6.00 Build 0)  -->
<svg version="1.1" id="Layer_1" xmlns="http://www.w3.org/2000/svg" xmlns:xlink="http://www.w3.org/1999/xlink" x="0px" y="0px"
	 viewBox="0 0 512 512" style="enable-background:new 0 0 512 512;" xml:space="preserve">
<circle style="fill:#21D8DE;" cx="256" cy="256" r="256"/>
<g>
	<path style="fill:#242D3C;" d="M215.995,177.895c9.84-9.834,22.723-14.749,35.605-14.749c12.876,0,25.768,4.915,35.599,14.749
		c9.82,9.827,14.736,22.716,14.736,35.599v176.207c0,1.292-0.482,2.573-1.463,3.554c-0.988,0.988-2.276,1.477-3.567,1.477h-90.621
		c-1.285,0-2.573-0.489-3.561-1.477c-0.981-0.981-1.47-2.266-1.47-3.554V213.497C201.252,200.611,206.168,187.722,215.995,177.895z"
		/>
	<rect x="234.661" y="126.547" style="fill:#242D3C;" width="33.884" height="39.536"/>
</g>
<path style="fill:#FFFFFF;" d="M234.651,67.237c0-0.723,0.277-1.447,0.826-1.998c0.555-0.548,1.278-0.826,1.995-0.826h28.246
	c0.723,0,1.44,0.277,1.995,0.826c0.548,0.555,0.826,1.278,0.826,1.998v59.296h-33.888V67.237z"/>
<g>
	<path style="fill:#CCCBCA;" d="M231.834,76.271c0-1.549,1.272-2.821,2.821-2.821h33.885c1.556,0,2.824,1.272,2.824,2.821v11.297
		c0,1.556-1.272,2.824-2.824,2.824h-33.888c-1.549,0-2.821-1.272-2.821-2.824V76.271H231.834z"/>
	<rect x="251.607" y="226.403" style="fill:#CCCBCA;" width="50.335" height="122.847"/>
</g>
<rect x="251.607" y="256.76" style="fill:#FFFFFF;" width="50.335" height="62.167"/>
<rect x="339.935" y="259.865" style="fill:#D9D8D7;" width="57.717" height="8.588"/>
<path style="fill:#FFFFFF;" d="M416.2,381.618c0,3.356-1.272,6.715-3.838,9.279c-2.56,2.553-5.923,3.838-9.279,3.838h-68.542
	c-3.356,0-6.709-1.285-9.279-3.838c-2.56-2.56-3.845-5.923-3.845-9.279V281.574c0-3.363,1.285-6.722,3.845-9.279
	c2.567-2.56,5.923-3.845,9.279-3.845h68.542c3.356,0,6.715,1.285,9.279,3.845c2.567,2.553,3.838,5.916,3.838,9.279V381.618z"/>
<path style="fill:#F2F2F2;" d="M412.361,272.298c-2.56-2.56-5.923-3.845-9.279-3.845h-15.36c3.363,0,6.715,1.285,9.285,3.845
	c2.547,2.553,3.832,5.916,3.832,9.279v100.045c0,3.356-1.285,6.715-3.832,9.279c-2.567,2.553-5.923,3.838-9.285,3.838h15.36
	c3.356,0,6.715-1.285,9.279-3.838c2.567-2.56,3.838-5.923,3.838-9.279V281.574C416.2,278.214,414.928,274.852,412.361,272.298z"/>
<rect x="321.437" y="304.095" style="fill:#F15424;" width="94.779" height="55.246"/>
<rect x="400.846" y="304.095" style="fill:#E64717;" width="15.36" height="55.246"/>
<g>
	<rect x="345.088" y="315.954" style="fill:#FFFFFF;" width="47.424" height="5.328"/>
	<rect x="345.088" y="329.034" style="fill:#FFFFFF;" width="47.424" height="5.341"/>
	<rect x="345.088" y="342.181" style="fill:#FFFFFF;" width="23.717" height="5.341"/>
</g>
<path style="fill:#242D3C;" d="M403.638,240.405c0.69,0,1.374,0.238,1.889,0.793c0.522,0.515,0.773,1.186,0.773,1.86v14.161
	c0,0.664-0.251,1.328-0.773,1.896c-0.515,0.509-1.199,0.75-1.889,0.75h-69.652c-0.697,0-1.387-0.238-1.889-0.75
	c-0.522-0.568-0.773-1.232-0.773-1.896v-14.161c0-0.671,0.251-1.341,0.773-1.86c0.502-0.555,1.192-0.793,1.889-0.793H403.638z"/>
<rect x="331.314" y="243.051" style="fill:#131A26;" width="74.98" height="14.161"/>
<g>
	<rect x="401.87" y="243.051" style="fill:#242D3C;" width="2.193" height="14.161"/>
	<rect x="396.585" y="243.051" style="fill:#242D3C;" width="2.2" height="14.161"/>
	<rect x="391.366" y="243.051" style="fill:#242D3C;" width="2.207" height="14.161"/>
	<rect x="386.081" y="243.051" style="fill:#242D3C;" width="2.2" height="14.161"/>
	<rect x="380.829" y="243.051" style="fill:#242D3C;" width="2.226" height="14.161"/>
	<rect x="375.577" y="243.051" style="fill:#242D3C;" width="2.2" height="14.161"/>
	<rect x="370.325" y="243.051" style="fill:#242D3C;" width="2.226" height="14.161"/>
	<rect x="365.073" y="243.051" style="fill:#242D3C;" width="2.213" height="14.161"/>
	<rect x="359.853" y="243.051" style="fill:#242D3C;" width="2.193" height="14.161"/>
	<rect x="354.568" y="243.051" style="fill:#242D3C;" width="2.2" height="14.161"/>
	<rect x="349.316" y="243.051" style="fill:#242D3C;" width="2.233" height="14.161"/>
	<rect x="344.064" y="243.051" style="fill:#242D3C;" width="2.2" height="14.161"/>
	<rect x="338.812" y="243.051" style="fill:#242D3C;" width="2.193" height="14.161"/>
	<rect x="333.56" y="243.051" style="fill:#242D3C;" width="2.2" height="14.161"/>
</g>
<rect x="95.794" y="231.622" style="fill:#F2F2F2;" width="81.543" height="163.08"/>
<rect x="177.344" y="231.622" style="fill:#D9D8D7;" width="40.768" height="163.08"/>
<polygon style="fill:#CCCBCA;" points="177.344,231.639 197.728,190.187 218.109,231.639 "/>
<polygon style="fill:#FFFFFF;" points="197.728,190.187 116.188,190.187 95.8,231.639 177.344,231.639 "/>
<rect x="95.794" y="271.888" style="fill:#FFD55C;" width="81.543" height="56.155"/>
<rect x="177.344" y="271.888" style="fill:#FFB733;" width="40.768" height="56.155"/>
<g>
	<rect x="108.709" y="287.05" style="fill:#FFFFFF;" width="55.722" height="8.948"/>
	<rect x="108.709" y="303.93" style="fill:#FFFFFF;" width="28.692" height="8.948"/>
</g>
<rect x="116.174" y="169.786" style="fill:#FFC640;" width="81.543" height="20.388"/>
<polygon style="fill:#FFD55C;" points="118.84,394.735 141.89,394.735 95.8,348.646 95.8,371.695 "/>
<g>
</g>
<g>
</g>
<g>
</g>
<g>
</g>
<g>
</g>
<g>
</g>
<g>
</g>
<g>
</g>
<g>
</g>
<g>
</g>
<g>
</g>
<g>
</g>
<g>
</g>
<g>
</g>
<g>
</g>
</svg>
