<?xml version="1.0" encoding="iso-8859-1"?>
<!-- Generator: Adobe Illustrator 19.0.0, SVG Export Plug-In . SVG Version: 6.00 Build 0)  -->
<svg version="1.1" id="Layer_1" xmlns="http://www.w3.org/2000/svg" xmlns:xlink="http://www.w3.org/1999/xlink" x="0px" y="0px"
	 viewBox="0 0 512 512" style="enable-background:new 0 0 512 512;" xml:space="preserve">
<circle style="fill:#F2F2F2;" cx="256" cy="256" r="256"/>
<g>
	<path style="fill:#242D3C;" d="M159.42,351.942c-4.116,5.315-10.105,9.219-17.216,10.62c-7.112,1.394-14.131,0.04-19.958-3.323
		l-0.482-0.277c-5.824-3.363-10.504-8.76-12.856-15.624c-2.345-6.857-1.952-13.992,0.591-20.219l37.383-91.516l70.081,46.1
		L159.42,351.942z"/>
	<path style="fill:#242D3C;" d="M352.576,351.942c4.119,5.315,10.101,9.219,17.216,10.62c7.118,1.394,14.131,0.04,19.958-3.323
		l0.482-0.277c5.827-3.363,10.508-8.76,12.856-15.624c2.349-6.857,1.956-13.992-0.591-20.219l-37.383-91.516l-70.081,46.1
		L352.576,351.942z"/>
	<path style="fill:#242D3C;" d="M191.66,222.621v85.669h24.83c6.263,0,12.156-2.438,16.582-6.864
		c3.601-3.601,5.883-8.162,6.613-13.111h32.636c0.733,4.948,3.013,9.51,6.613,13.111c4.426,4.426,10.316,6.864,16.582,6.864h24.83
		v-85.669H191.66z"/>
</g>
<path style="fill:#3E4959;" d="M355.338,217.722c-9.665-9.665-22.333-14.498-35.001-14.498h-128.68
	c-12.665,0-25.329,4.833-34.998,14.498c-9.669,9.665-14.495,22.33-14.495,34.994c0,12.671,4.826,25.336,14.495,35.001
	s22.333,14.498,34.998,14.498h24.834c4.446,0,8.889-1.698,12.281-5.084c3.389-3.392,5.087-7.839,5.087-12.285v-2.606h44.28v2.606
	c0,4.446,1.701,8.889,5.09,12.285c3.386,3.386,7.835,5.084,12.278,5.084h24.834c12.668,0,25.336-4.833,35.001-14.498
	c9.662-9.665,14.498-22.33,14.498-35.001C369.836,240.052,365,227.387,355.338,217.722z"/>
<g>
	<circle style="fill:#242D3C;" cx="216.493" cy="284.837" r="10.854"/>
	<circle style="fill:#242D3C;" cx="295.507" cy="284.837" r="10.854"/>
	<polygon style="fill:#242D3C;" points="187.105,227.516 187.105,245.942 191.716,250.55 196.321,245.942 196.321,227.516 	"/>
	<polygon style="fill:#242D3C;" points="196.321,277.884 196.321,259.452 191.716,254.844 187.105,259.452 187.105,277.884 	"/>
	<polygon style="fill:#242D3C;" points="166.529,257.305 184.954,257.305 189.566,252.697 184.954,248.089 166.529,248.089 	"/>
	<polygon style="fill:#242D3C;" points="216.896,248.089 198.471,248.089 193.86,252.697 198.471,257.305 216.896,257.305 	"/>
	<circle style="fill:#242D3C;" cx="320.281" cy="271.36" r="6.514"/>
	<circle style="fill:#242D3C;" cx="320.281" cy="234.027" r="6.514"/>
	<circle style="fill:#242D3C;" cx="301.618" cy="252.697" r="6.514"/>
	<circle style="fill:#242D3C;" cx="338.944" cy="252.697" r="6.511"/>
	<path style="fill:#242D3C;" d="M237.416,250.55c-0.598,0.595-0.889,1.374-0.889,2.147c0,0.78,0.291,1.562,0.889,2.147
		c0.595,0.595,1.371,0.892,2.15,0.892h12.592v-6.078h-12.592C238.787,249.658,238.011,249.955,237.416,250.55z"/>
	<path style="fill:#242D3C;" d="M274.716,250.55c-0.595-0.595-1.371-0.892-2.15-0.892h-12.592v6.078h12.592
		c0.78,0,1.559-0.297,2.15-0.892c0.598-0.588,0.892-1.368,0.892-2.147C275.608,251.924,275.314,251.141,274.716,250.55z"/>
	<rect x="191.653" y="197.15" style="fill:#242D3C;" width="34.737" height="6.078"/>
	<rect x="285.597" y="197.15" style="fill:#242D3C;" width="34.737" height="6.078"/>
	<path style="fill:#242D3C;" d="M258.051,203.224h-3.964v-26.657c0-3.452-1.338-6.682-3.779-9.11
		c-2.438-2.444-5.678-3.785-9.124-3.785H201.5c-4.499,0-8.734-1.754-11.918-4.935c-3.181-3.181-4.928-7.412-4.928-11.908
		c0-4.509,1.747-8.747,4.928-11.928s7.412-4.928,11.918-4.928h108.993c3.445,0,6.686-1.341,9.127-3.776
		c2.425-2.438,3.769-5.678,3.769-9.124c0-3.439-1.341-6.676-3.772-9.124c-2.434-2.431-5.675-3.776-9.124-3.776h-39.619
		c-4.492,0-8.727-1.747-11.918-4.928c-3.188-3.201-4.935-7.432-4.935-11.928V0h3.961v87.317c0,3.439,1.341,6.682,3.776,9.13
		c2.441,2.425,5.682,3.769,9.12,3.769h39.619c4.506,0,8.74,1.754,11.925,4.935c3.181,3.194,4.928,7.426,4.928,11.921
		s-1.747,8.73-4.925,11.921c-3.191,3.188-7.426,4.935-11.928,4.935H201.5c-3.445,0-6.679,1.341-9.114,3.776
		c-2.434,2.434-3.772,5.668-3.772,9.12c0,3.439,1.341,6.673,3.776,9.11c2.431,2.431,5.672,3.776,9.114,3.776h39.688
		c4.506,0,8.74,1.754,11.925,4.942c3.184,3.174,4.938,7.406,4.938,11.915v26.657H258.051z"/>
</g>
<g>
</g>
<g>
</g>
<g>
</g>
<g>
</g>
<g>
</g>
<g>
</g>
<g>
</g>
<g>
</g>
<g>
</g>
<g>
</g>
<g>
</g>
<g>
</g>
<g>
</g>
<g>
</g>
<g>
</g>
</svg>
