<?xml version="1.0" encoding="iso-8859-1"?>
<!-- Generator: Adobe Illustrator 19.0.0, SVG Export Plug-In . SVG Version: 6.00 Build 0)  -->
<svg version="1.1" id="Layer_1" xmlns="http://www.w3.org/2000/svg" xmlns:xlink="http://www.w3.org/1999/xlink" x="0px" y="0px"
	 viewBox="0 0 512 512" style="enable-background:new 0 0 512 512;" xml:space="preserve">
<circle style="fill:#F2F2F2;" cx="256" cy="256" r="256"/>
<path style="fill:#FFD55C;" d="M258.97,370.685h162.192V208.496L258.97,370.685z M396.922,346.439h-79.419l79.419-79.413V346.439z"
	/>
<g>
	<rect x="413.366" y="365.7" style="fill:#242D3C;" width="0.885" height="4.994"/>
	<rect x="398.6" y="365.7" style="fill:#242D3C;" width="0.885" height="4.988"/>
	<rect x="383.868" y="365.7" style="fill:#242D3C;" width="0.889" height="4.994"/>
	<rect x="369.102" y="365.7" style="fill:#242D3C;" width="0.885" height="4.988"/>
	<rect x="354.37" y="365.7" style="fill:#242D3C;" width="0.895" height="4.988"/>
	<rect x="339.638" y="365.7" style="fill:#242D3C;" width="0.885" height="4.988"/>
	<rect x="324.872" y="365.7" style="fill:#242D3C;" width="0.882" height="4.994"/>
	<rect x="310.14" y="365.7" style="fill:#242D3C;" width="0.882" height="4.994"/>
	<rect x="295.374" y="365.7" style="fill:#242D3C;" width="0.889" height="4.988"/>
	<rect x="280.652" y="365.7" style="fill:#242D3C;" width="0.879" height="4.994"/>
	<rect x="265.91" y="365.7" style="fill:#242D3C;" width="0.885" height="4.988"/>
	<rect x="273.342" y="368.211" style="fill:#242D3C;" width="0.737" height="2.497"/>
	<rect x="288.107" y="368.211" style="fill:#242D3C;" width="0.73" height="2.497"/>
	<rect x="302.84" y="368.211" style="fill:#242D3C;" width="0.737" height="2.491"/>
	<rect x="317.572" y="368.211" style="fill:#242D3C;" width="0.74" height="2.497"/>
	<rect x="332.338" y="368.211" style="fill:#242D3C;" width="0.733" height="2.497"/>
	<rect x="347.07" y="368.211" style="fill:#242D3C;" width="0.737" height="2.491"/>
	<rect x="361.802" y="368.211" style="fill:#242D3C;" width="0.743" height="2.491"/>
	<rect x="376.568" y="368.211" style="fill:#242D3C;" width="0.74" height="2.497"/>
	<rect x="391.3" y="368.211" style="fill:#242D3C;" width="0.737" height="2.491"/>
	<rect x="406.066" y="368.211" style="fill:#242D3C;" width="0.74" height="2.491"/>
</g>
<g>
	<rect x="139.165" y="174.529" style="fill:#3E4959;" width="245.265" height="159.414"/>
	<path style="fill:#323A46;" d="M139.155,221.931c2.524,7.406,6.712,14.207,12.407,19.902c9.791,9.787,22.805,15.175,36.649,15.175
		H335.37c13.847,0,26.859-5.394,36.639-15.175c5.705-5.705,9.896-12.496,12.42-19.909v-47.395H139.155V221.931z"/>
	<path style="fill:#3E4959;" d="M384.426,150.006H139.155v55.18c0,12.556,4.79,25.111,14.362,34.69
		c9.583,9.579,22.132,14.362,34.694,14.362H335.37c12.556,0,25.111-4.78,34.684-14.362c9.579-9.579,14.376-22.135,14.376-34.69
		v-55.18H384.426z"/>
</g>
<g>
	<rect x="164.91" y="148.163" style="fill:#131A26;" width="66.23" height="1.847"/>
	<rect x="292.435" y="148.163" style="fill:#131A26;" width="66.23" height="1.847"/>
	<g>
		<rect x="188.211" y="146.333" style="fill:#131A26;" width="19.615" height="189.473"/>
		<rect x="315.755" y="146.333" style="fill:#131A26;" width="19.618" height="189.473"/>
	</g>
</g>
<g>
	<rect x="176.557" y="194.768" style="fill:#3E4959;" width="42.919" height="14.709"/>
	<rect x="304.095" y="194.768" style="fill:#3E4959;" width="42.919" height="14.709"/>
</g>
<path style="fill:#FFFFFF;" d="M209.652,243.831c-1.394-1.394-3.237-2.16-5.206-2.16H191.59c-1.969,0-3.819,0.766-5.209,2.16
	c-1.394,1.394-2.157,3.244-2.157,5.212v17.761h3.987v-3.059h-0.918v-14.703c0-1.156,0.443-2.233,1.259-3.046
	c0.813-0.813,1.893-1.265,3.042-1.265h12.856c1.15,0,2.23,0.453,3.049,1.265c0.803,0.813,1.259,1.889,1.259,3.046v14.703h-0.925
	v3.059h3.984v-17.761C211.809,247.078,211.05,245.225,209.652,243.831z"/>
<path style="fill:#CCCBCA;" d="M196.482,251.729h3.065V243.2c0-0.304-0.119-0.624-0.36-0.859c-0.238-0.244-0.545-0.36-0.859-0.36
	h-0.621c-0.307,0-0.624,0.116-0.875,0.36c-0.231,0.231-0.35,0.555-0.35,0.859L196.482,251.729L196.482,251.729z"/>
<path style="fill:#FFFFFF;" d="M337.193,243.831c-1.397-1.394-3.24-2.16-5.212-2.16h-12.846c-1.972,0-3.825,0.766-5.216,2.16
	c-1.397,1.394-2.157,3.244-2.157,5.212v17.761h3.987v-3.059h-0.918v-14.703c0-1.156,0.446-2.233,1.265-3.046
	c0.809-0.813,1.889-1.265,3.042-1.265h12.846c1.153,0,2.236,0.453,3.049,1.265c0.813,0.813,1.265,1.889,1.265,3.046v14.703h-0.925
	v3.059h3.98v-17.761C339.347,247.078,338.587,245.225,337.193,243.831z"/>
<path style="fill:#CCCBCA;" d="M324.02,251.729h3.072V243.2c0-0.304-0.119-0.624-0.357-0.859c-0.238-0.244-0.552-0.36-0.869-0.36
	h-0.614c-0.311,0-0.631,0.116-0.869,0.36c-0.238,0.231-0.363,0.555-0.363,0.859V251.729z"/>
<path style="fill:#131A26;" d="M297.971,136.82c-1.103,0-2.2-0.42-3.039-1.259c-0.836-0.839-1.259-1.936-1.259-3.039v-0.608
	c0-0.495-0.188-0.955-0.538-1.305c-0.344-0.347-0.813-0.542-1.301-0.542h-60.089c-0.495,0-0.951,0.195-1.305,0.542
	c-0.353,0.347-0.542,0.806-0.542,1.305v0.608c0,1.103-0.42,2.2-1.259,3.039c-0.832,0.839-1.932,1.259-3.032,1.259l0,0
	c-1.1,0-2.197-0.42-3.029-1.259c-0.839-0.839-1.259-1.936-1.259-3.039v-0.608c0-2.788,1.077-5.407,3.049-7.373
	c1.969-1.969,4.585-3.052,7.373-3.052h60.089c2.778,0,5.404,1.083,7.366,3.052c1.962,1.969,3.059,4.588,3.059,7.373v0.608
	c0,1.103-0.429,2.2-1.268,3.039C300.161,136.4,299.064,136.82,297.971,136.82L297.971,136.82z"/>
<g>
	<path style="fill:#FFFFFF;" d="M226.69,132.975c-0.294-0.304-0.684-0.453-1.08-0.453c-0.4,0-0.786,0.149-1.087,0.453
		c-0.294,0.297-0.446,0.69-0.446,1.083v14.105h3.065v-14.105C227.143,133.665,226.991,133.272,226.69,132.975z"/>
	<path style="fill:#FFFFFF;" d="M299.048,132.975c-0.304-0.304-0.69-0.453-1.077-0.453c-0.393,0-0.789,0.149-1.1,0.453
		c-0.294,0.297-0.439,0.69-0.439,1.083v14.105h3.065v-14.105C299.497,133.665,299.352,133.272,299.048,132.975z"/>
	<polygon style="fill:#FFFFFF;" points="109.314,168.484 100.081,150.006 90.839,168.484 	"/>
</g>
<rect x="90.839" y="168.498" style="fill:#F15424;" width="18.475" height="180.191"/>
<rect x="90.839" y="168.498" style="fill:#FF6D3B;" width="9.239" height="180.191"/>
<polygon style="fill:#242D3C;" points="103.688,157.234 100.081,150.006 96.448,157.24 "/>
<rect x="90.839" y="348.655" style="fill:#FFFFFF;" width="18.482" height="6.53"/>
<rect x="90.839" y="355.196" style="fill:#242D3C;" width="18.478" height="15.502"/>
<g>
</g>
<g>
</g>
<g>
</g>
<g>
</g>
<g>
</g>
<g>
</g>
<g>
</g>
<g>
</g>
<g>
</g>
<g>
</g>
<g>
</g>
<g>
</g>
<g>
</g>
<g>
</g>
<g>
</g>
</svg>
