<?xml version="1.0" encoding="iso-8859-1"?>
<!-- Generator: Adobe Illustrator 19.0.0, SVG Export Plug-In . SVG Version: 6.00 Build 0)  -->
<svg version="1.1" id="Layer_1" xmlns="http://www.w3.org/2000/svg" xmlns:xlink="http://www.w3.org/1999/xlink" x="0px" y="0px"
	 viewBox="0 0 512 512" style="enable-background:new 0 0 512 512;" xml:space="preserve">
<circle style="fill:#3E4959;" cx="256" cy="256" r="256"/>
<rect x="251.078" y="155.318" style="fill:#21D8DE;" width="166.78" height="218.872"/>
<rect x="251.078" y="137.794" style="fill:#FFFFFF;" width="166.78" height="17.543"/>
<g>
	<rect x="272.318" y="174.975" style="fill:#242D3C;" width="86.875" height="3.425"/>
	<rect x="299.867" y="181.413" style="fill:#242D3C;" width="49.747" height="3.425"/>
	<rect x="292.534" y="187.851" style="fill:#242D3C;" width="104.068" height="3.425"/>
	<rect x="292.534" y="194.283" style="fill:#242D3C;" width="18.26" height="3.425"/>
	<rect x="272.318" y="210.217" style="fill:#242D3C;" width="41.535" height="3.432"/>
	<rect x="292.534" y="216.659" style="fill:#242D3C;" width="97.921" height="3.425"/>
	<rect x="292.534" y="223.067" style="fill:#242D3C;" width="81.273" height="3.425"/>
	<rect x="272.318" y="239.021" style="fill:#242D3C;" width="65.87" height="3.425"/>
	<rect x="292.534" y="245.463" style="fill:#242D3C;" width="70.768" height="3.425"/>
	<rect x="292.534" y="251.871" style="fill:#242D3C;" width="21.332" height="3.425"/>
	<rect x="305.383" y="258.312" style="fill:#242D3C;" width="80.982" height="3.425"/>
	<rect x="292.534" y="264.754" style="fill:#242D3C;" width="29.27" height="3.425"/>
	<rect x="272.318" y="280.685" style="fill:#242D3C;" width="45.631" height="3.425"/>
	<rect x="292.732" y="287.116" style="fill:#242D3C;" width="56.878" height="3.425"/>
	<rect x="292.732" y="293.558" style="fill:#242D3C;" width="34.984" height="3.419"/>
	<rect x="272.318" y="309.479" style="fill:#242D3C;" width="101.475" height="3.432"/>
	<rect x="292.534" y="315.921" style="fill:#242D3C;" width="25.428" height="3.432"/>
	<rect x="292.534" y="322.362" style="fill:#242D3C;" width="49.78" height="3.425"/>
	<rect x="316.68" y="328.77" style="fill:#242D3C;" width="75.574" height="3.419"/>
	<rect x="272.318" y="344.725" style="fill:#242D3C;" width="60.139" height="3.425"/>
	<rect x="292.534" y="351.166" style="fill:#242D3C;" width="72.304" height="3.419"/>
</g>
<rect x="87.535" y="208.301" style="fill:#FFFFFF;" width="247.167" height="95.367"/>
<g>
	<rect x="95.671" y="216.46" style="fill:#CCCBCA;" width="12.318" height="12.305"/>
	<rect x="298.083" y="232.646" style="fill:#CCCBCA;" width="12.311" height="12.311"/>
	<rect x="281.897" y="232.646" style="fill:#CCCBCA;" width="12.314" height="12.311"/>
	<rect x="265.678" y="232.646" style="fill:#CCCBCA;" width="12.318" height="12.311"/>
	<rect x="249.493" y="232.646" style="fill:#CCCBCA;" width="12.311" height="12.311"/>
	<rect x="233.307" y="232.646" style="fill:#CCCBCA;" width="12.305" height="12.311"/>
	<rect x="217.118" y="232.646" style="fill:#CCCBCA;" width="12.318" height="12.311"/>
	<rect x="200.922" y="232.646" style="fill:#CCCBCA;" width="12.318" height="12.311"/>
	<rect x="184.73" y="232.646" style="fill:#CCCBCA;" width="12.318" height="12.311"/>
	<rect x="168.531" y="232.646" style="fill:#CCCBCA;" width="12.314" height="12.311"/>
	<rect x="152.345" y="232.646" style="fill:#CCCBCA;" width="12.318" height="12.311"/>
	<rect x="136.159" y="232.646" style="fill:#CCCBCA;" width="12.314" height="12.311"/>
	<rect x="119.973" y="232.646" style="fill:#CCCBCA;" width="12.318" height="12.311"/>
	<rect x="123.871" y="248.832" style="fill:#CCCBCA;" width="12.311" height="12.318"/>
	<rect x="115.943" y="265.018" style="fill:#CCCBCA;" width="12.318" height="12.305"/>
	<rect x="132.129" y="265.018" style="fill:#CCCBCA;" width="12.314" height="12.305"/>
	<rect x="148.328" y="265.018" style="fill:#CCCBCA;" width="12.314" height="12.305"/>
	<rect x="164.517" y="265.018" style="fill:#CCCBCA;" width="12.314" height="12.305"/>
	<rect x="180.703" y="265.018" style="fill:#CCCBCA;" width="12.318" height="12.305"/>
	<rect x="196.905" y="265.018" style="fill:#CCCBCA;" width="12.308" height="12.305"/>
	<rect x="213.091" y="265.018" style="fill:#CCCBCA;" width="12.308" height="12.305"/>
	<rect x="229.277" y="265.018" style="fill:#CCCBCA;" width="12.318" height="12.305"/>
	<rect x="245.463" y="265.018" style="fill:#CCCBCA;" width="12.311" height="12.305"/>
	<rect x="261.648" y="265.018" style="fill:#CCCBCA;" width="12.318" height="12.305"/>
	<rect x="277.834" y="265.018" style="fill:#CCCBCA;" width="12.308" height="12.305"/>
	<rect x="293.987" y="265.018" style="fill:#CCCBCA;" width="32.58" height="12.305"/>
	<rect x="140.057" y="248.832" style="fill:#CCCBCA;" width="12.318" height="12.318"/>
	<rect x="156.243" y="248.832" style="fill:#CCCBCA;" width="12.314" height="12.318"/>
	<rect x="172.428" y="248.832" style="fill:#CCCBCA;" width="12.308" height="12.318"/>
	<rect x="188.614" y="248.832" style="fill:#CCCBCA;" width="12.318" height="12.318"/>
	<rect x="204.8" y="248.832" style="fill:#CCCBCA;" width="12.314" height="12.318"/>
	<rect x="220.992" y="248.832" style="fill:#CCCBCA;" width="12.311" height="12.318"/>
	<rect x="237.178" y="248.832" style="fill:#CCCBCA;" width="12.311" height="12.318"/>
	<rect x="253.357" y="248.832" style="fill:#CCCBCA;" width="12.311" height="12.318"/>
	<rect x="269.543" y="248.832" style="fill:#CCCBCA;" width="12.318" height="12.318"/>
	<rect x="285.729" y="248.832" style="fill:#CCCBCA;" width="12.314" height="12.318"/>
	<rect x="301.915" y="248.832" style="fill:#CCCBCA;" width="12.308" height="12.318"/>
	<rect x="111.87" y="216.46" style="fill:#CCCBCA;" width="12.308" height="12.305"/>
	<rect x="128.059" y="216.46" style="fill:#CCCBCA;" width="12.314" height="12.305"/>
	<rect x="144.249" y="216.46" style="fill:#CCCBCA;" width="12.314" height="12.305"/>
	<rect x="160.431" y="216.46" style="fill:#CCCBCA;" width="12.318" height="12.305"/>
	<rect x="176.623" y="216.46" style="fill:#CCCBCA;" width="12.318" height="12.305"/>
	<rect x="192.809" y="216.46" style="fill:#CCCBCA;" width="12.305" height="12.305"/>
	<rect x="208.995" y="216.46" style="fill:#CCCBCA;" width="12.314" height="12.305"/>
	<rect x="225.214" y="216.46" style="fill:#CCCBCA;" width="12.314" height="12.305"/>
	<rect x="241.4" y="216.46" style="fill:#CCCBCA;" width="12.308" height="12.305"/>
	<rect x="257.579" y="216.46" style="fill:#CCCBCA;" width="12.314" height="12.305"/>
	<rect x="273.771" y="216.46" style="fill:#CCCBCA;" width="12.305" height="12.305"/>
	<rect x="289.957" y="216.46" style="fill:#CCCBCA;" width="12.318" height="12.305"/>
	<rect x="306.143" y="216.46" style="fill:#CCCBCA;" width="20.414" height="12.305"/>
	<rect x="95.671" y="232.646" style="fill:#CCCBCA;" width="20.427" height="12.311"/>
	<rect x="95.671" y="248.832" style="fill:#CCCBCA;" width="24.332" height="12.318"/>
	<rect x="95.671" y="265.018" style="fill:#CCCBCA;" width="16.414" height="12.305"/>
	<rect x="95.671" y="281.204" style="fill:#CCCBCA;" width="12.321" height="14.356"/>
	<rect x="111.814" y="281.204" style="fill:#CCCBCA;" width="12.321" height="14.356"/>
	<rect x="127.96" y="281.204" style="fill:#CCCBCA;" width="12.318" height="14.356"/>
	<rect x="144.103" y="281.204" style="fill:#CCCBCA;" width="16.516" height="14.356"/>
	<rect x="164.504" y="281.204" style="fill:#CCCBCA;" width="77.084" height="14.356"/>
	<rect x="245.463" y="281.204" style="fill:#CCCBCA;" width="16.516" height="14.356"/>
	<rect x="265.844" y="281.204" style="fill:#CCCBCA;" width="12.318" height="14.356"/>
	<rect x="281.996" y="288.834" style="fill:#CCCBCA;" width="12.318" height="6.696"/>
	<rect x="298.116" y="289.263" style="fill:#CCCBCA;" width="12.318" height="6.296"/>
	<rect x="298.116" y="281.138" style="fill:#CCCBCA;" width="12.318" height="6.296"/>
	<rect x="314.269" y="288.834" style="fill:#CCCBCA;" width="12.314" height="6.696"/>
	<polygon style="fill:#CCCBCA;" points="318.104,261.143 318.104,244.954 314.262,244.954 314.262,232.646 326.573,232.646 
		326.573,261.143 	"/>
</g>
<g>
	<path style="fill:#D9D8D7;" d="M149.329,374.213c-12.199,0-22.128-9.93-22.128-22.122v-48.405h3.059v48.405
		c0,10.517,8.555,19.07,19.07,19.07s19.066-8.555,19.066-19.07V159.916c0-12.199,9.926-22.122,22.125-22.122
		c12.199,0,22.125,9.923,22.125,22.122v48.412h-3.055v-48.412c0-10.511-8.555-19.063-19.07-19.063
		c-10.514,0-19.07,8.555-19.07,19.063v192.175C171.451,364.283,161.528,374.213,149.329,374.213z"/>
	<rect x="127.201" y="150.994" style="fill:#D9D8D7;" width="3.059" height="57.327"/>
	<path style="fill:#D9D8D7;" d="M128.73,152.523c-4.06,0-7.363-3.303-7.363-7.363c0-4.063,3.307-7.366,7.363-7.366
		c4.063,0,7.366,3.303,7.366,7.366C136.096,149.22,132.793,152.523,128.73,152.523z M128.73,140.853
		c-2.375,0-4.311,1.929-4.311,4.311c0,2.375,1.936,4.311,4.311,4.311c2.378,0,4.311-1.936,4.311-4.311
		C133.037,142.782,131.105,140.853,128.73,140.853z"/>
</g>
<g>
</g>
<g>
</g>
<g>
</g>
<g>
</g>
<g>
</g>
<g>
</g>
<g>
</g>
<g>
</g>
<g>
</g>
<g>
</g>
<g>
</g>
<g>
</g>
<g>
</g>
<g>
</g>
<g>
</g>
</svg>
