<?xml version="1.0" encoding="iso-8859-1"?>
<!-- Generator: Adobe Illustrator 19.0.0, SVG Export Plug-In . SVG Version: 6.00 Build 0)  -->
<svg version="1.1" id="Layer_1" xmlns="http://www.w3.org/2000/svg" xmlns:xlink="http://www.w3.org/1999/xlink" x="0px" y="0px"
	 viewBox="0 0 512 512" style="enable-background:new 0 0 512 512;" xml:space="preserve">
<circle style="fill:#FF6D3B;" cx="256" cy="256" r="256"/>
<path style="fill:#3E4959;" d="M326.481,354.278c0,10.775-4.109,21.554-12.334,29.782c-8.222,8.218-19.007,12.328-29.782,12.328H151
	V115.613h133.364c10.775,0,21.557,4.116,29.782,12.334c8.225,8.225,12.334,19.007,12.334,29.782L326.481,354.278L326.481,354.278z"
	/>
<rect x="151" y="214.039" style="fill:#FFFFFF;" width="175.467" height="83.928"/>
<rect x="124.125" y="115.613" style="fill:#242D3C;" width="26.875" height="280.774"/>
<rect x="164.544" y="115.613" style="fill:#F15424;" width="10.983" height="280.774"/>
<rect x="238.46" y="241.135" style="fill:#FF6D3B;" width="29.703" height="29.703"/>
<polygon style="fill:#FFC640;" points="196.545,270.851 213.686,241.149 230.836,270.851 "/>
<path style="fill:#242D3C;" d="M305.469,256c0,8.199-6.653,14.851-14.845,14.851c-8.212,0-14.858-6.653-14.858-14.851
	c0-8.199,6.646-14.851,14.858-14.851C298.816,241.149,305.469,247.801,305.469,256z"/>
<rect x="360.382" y="228.682" style="fill:#CCCBCA;" width="14.485" height="8.053"/>
<path style="fill:#FFD55C;" d="M374.853,268.11v121.05c0,3.994-3.247,7.227-7.244,7.227c-3.99,0-7.237-3.234-7.237-7.227V268.11
	H374.853z"/>
<path style="fill:#FFB733;" d="M374.853,389.163V268.11h-7.244v128.277C371.606,396.387,374.853,393.153,374.853,389.163z"/>
<path style="fill:#FFFFFF;" d="M387.875,215.651L387.875,215.651L387.875,215.651l-20.265-43.755l-20.262,43.755l0,0l0,0
	l-0.003,0.007h0.016c7.171,0,12.985,5.807,13.008,12.982v0.04h14.485v-0.04c0.017-7.175,5.83-12.982,13.005-12.982h0.017
	L387.875,215.651L387.875,215.651z"/>
<rect x="366.79" y="171.9" style="fill:#131A26;" width="1.622" height="27.38"/>
<path style="fill:#3E4959;" d="M376.34,236.729c0.172,0,0.34,0.066,0.466,0.195c0.126,0.129,0.201,0.304,0.201,0.472v30.053
	c0,0.162-0.073,0.344-0.201,0.472c-0.126,0.122-0.294,0.195-0.466,0.195h-17.458c-0.165,0-0.34-0.069-0.472-0.195
	c-0.129-0.129-0.195-0.311-0.195-0.472v-30.053c0-0.168,0.066-0.344,0.195-0.472c0.132-0.129,0.307-0.195,0.472-0.195H376.34z"/>
<rect x="358.202" y="237.393" style="fill:#131A26;" width="18.789" height="30.059"/>
<g>
	<rect x="375.874" y="237.393" style="fill:#3E4959;" width="0.555" height="30.059"/>
	<rect x="374.553" y="237.393" style="fill:#3E4959;" width="0.555" height="30.059"/>
	<rect x="373.264" y="237.393" style="fill:#3E4959;" width="0.542" height="30.059"/>
	<rect x="371.943" y="237.393" style="fill:#3E4959;" width="0.548" height="30.059"/>
	<rect x="370.622" y="237.393" style="fill:#3E4959;" width="0.548" height="30.059"/>
	<rect x="369.301" y="237.393" style="fill:#3E4959;" width="0.548" height="30.059"/>
	<rect x="367.979" y="237.393" style="fill:#3E4959;" width="0.548" height="30.059"/>
	<rect x="366.658" y="237.393" style="fill:#3E4959;" width="0.545" height="30.059"/>
	<rect x="365.37" y="237.393" style="fill:#3E4959;" width="0.548" height="30.059"/>
	<rect x="364.048" y="237.393" style="fill:#3E4959;" width="0.555" height="30.059"/>
	<rect x="362.727" y="237.393" style="fill:#3E4959;" width="0.558" height="30.059"/>
	<rect x="361.406" y="237.393" style="fill:#3E4959;" width="0.558" height="30.059"/>
	<rect x="360.085" y="237.393" style="fill:#3E4959;" width="0.555" height="30.059"/>
	<rect x="358.763" y="237.393" style="fill:#3E4959;" width="0.552" height="30.059"/>
</g>
<g>
</g>
<g>
</g>
<g>
</g>
<g>
</g>
<g>
</g>
<g>
</g>
<g>
</g>
<g>
</g>
<g>
</g>
<g>
</g>
<g>
</g>
<g>
</g>
<g>
</g>
<g>
</g>
<g>
</g>
</svg>
