<?xml version="1.0" encoding="iso-8859-1"?>
<!-- Generator: Adobe Illustrator 19.0.0, SVG Export Plug-In . SVG Version: 6.00 Build 0)  -->
<svg version="1.1" id="Layer_1" xmlns="http://www.w3.org/2000/svg" xmlns:xlink="http://www.w3.org/1999/xlink" x="0px" y="0px"
	 viewBox="0 0 512 512" style="enable-background:new 0 0 512 512;" xml:space="preserve">
<circle style="fill:#3E4959;" cx="256" cy="256" r="256"/>
<g>
	<path style="fill:#D9D8D7;" d="M307.877,189.714v9.705h106.489v-8.469c-29.785,0-56.852-11.518-77.064-30.33h-58.629v29.095h29.204
		V189.714z"/>
	<polygon style="fill:#D9D8D7;" points="218.726,160.619 218.726,175.173 170.678,175.173 156.117,189.714 233.323,189.714 
		233.323,160.619 	"/>
	<path style="fill:#D9D8D7;" d="M307.877,266.858H293.27h-14.597h-3.171v0.01v7.36v0.664v7.376h3.171h6.821v1.159h-6.821h-3.171
		v7.363v0.007h4.998v0.661h-4.998l0,0v7.376v0.007h9.992V300h-9.992v7.36h3.174h1.823v0.667h-1.823h-3.174v7.373h9.992v1.15h-9.992
		v0.01v7.376h3.174h1.823v0.651h-4.998v0.007v7.376h9.992v1.163h-6.821h-3.171v7.366h3.174h1.823v0.664h-1.823h-3.174v7.37h9.992
		v1.163h-9.992v0.007v7.36v0.01h4.998v0.667h-1.823h-3.174v7.36h9.992v1.169h-9.992v0.003v7.37h3.174h1.823v0.664h-4.998v7.37v0.007
		h9.992v1.156h-6.821h-3.171v7.36v0.671v7.383v0.135h3.171h14.597V295.959h44.032c20.212-18.818,47.279-30.35,77.064-30.35v-8.456
		H385.5h-77.623V266.858z"/>
</g>
<path style="fill:#FFFFFF;" d="M268.668,398.247h6.834v-7.383h-1.833v-0.671h1.833v-7.36h-6.834v-1.163h6.834v-7.37v-0.007h-1.833
	v-0.657h1.833v-7.37h-6.834V365.1h6.834v-0.007v-7.36h-1.833v-0.677h1.833v-7.36h-6.834v-1.156h6.834v-0.013v-7.37h-1.833v-0.664
	h1.833v-7.366h-6.834v-1.153h6.834v-0.01v-7.376h-1.833v-0.657h1.833v-7.376h-6.834v-1.153h6.834v-0.007v-7.373h-1.833v-0.667h1.833
	v-7.36v-0.016h-6.834v-1.15h6.834v-7.376h-1.833v-0.667h1.833v-7.363h-6.834v-1.159h6.834v-7.376h-1.833v-0.664h1.833v-7.36h-6.834
	v-1.169h10.005v-7.376h-5.004v-0.657h5.004v-7.376h-10.005v-1.166h10.005v-7.366h-5.004v-0.674h5.004v-7.366h-10.005v-1.153h10.005
	v-7.383h-5.004v-0.664h5.004v-7.366h-10.005v-1.159h10.005v-7.379h-5.004v-0.657h5.004v-7.37h-10.005v-1.166h10.005v-9.705v-29.095
	h-45.35v29.095v77.144h3.178v131.525h-3.178v112.607C240.797,511.645,248.356,512,256,512c7.643,0,15.201-0.355,22.673-1.011v-4.136
	h-5.004v-0.671h5.004v-7.366h-10.005v-1.173h10.005v-7.366h-5.004v-0.664h5.004v-7.383h-10.005v-1.146h10.005v-7.37h-5.004v-0.671
	h5.004v-7.37h-10.005v-1.159h10.005v-7.379h-5.004v-0.654h5.004v-7.379h-10.005v-1.15h10.005v-7.379h-5.004v-0.664h5.004v-7.36
	h-10.005v-1.166h10.005v-7.373h-5.004v-0.664h5.004v-7.373h-10.005v-1.163h10.005v-7.376h-5.004v-0.667h5.004v-7.366h-10.005
	V398.247z"/>
<g>
	<rect x="268.67" y="199.42" style="fill:#242D3C;" width="10.01" height="1.166"/>
	<rect x="268.67" y="215.99" style="fill:#242D3C;" width="10.01" height="1.159"/>
	<rect x="268.67" y="232.56" style="fill:#242D3C;" width="10.01" height="1.153"/>
	<rect x="268.67" y="249.12" style="fill:#242D3C;" width="10.01" height="1.166"/>
	<polygon style="fill:#242D3C;" points="268.668,266.868 275.502,266.868 275.502,266.858 278.673,266.858 278.673,265.698 
		268.668,265.698 	"/>
	<polygon style="fill:#242D3C;" points="268.668,283.427 275.502,283.427 278.673,283.427 285.495,283.427 285.495,282.267 
		278.673,282.267 275.502,282.267 268.668,282.267 	"/>
	<polygon style="fill:#242D3C;" points="268.668,299.982 275.502,299.982 275.502,299.999 285.495,299.999 285.495,298.84 
		275.502,298.84 275.502,298.833 268.668,298.833 	"/>
	<polygon style="fill:#242D3C;" points="268.668,315.405 268.668,316.558 275.502,316.558 275.502,316.548 285.495,316.548 
		285.495,315.399 275.502,315.399 275.502,315.405 	"/>
	<polygon style="fill:#242D3C;" points="268.668,331.977 268.668,333.13 275.502,333.13 278.673,333.13 285.495,333.13 
		285.495,331.968 275.502,331.968 275.502,331.977 	"/>
	<polygon style="fill:#242D3C;" points="268.668,348.543 268.668,349.699 275.502,349.699 275.502,349.693 285.495,349.693 
		285.495,348.53 275.502,348.53 275.502,348.543 	"/>
	<polygon style="fill:#242D3C;" points="268.668,365.102 268.668,366.268 275.502,366.268 275.502,366.265 285.495,366.265 
		285.495,365.096 275.502,365.096 275.502,365.102 	"/>
	<polygon style="fill:#242D3C;" points="268.668,382.834 275.502,382.834 278.673,382.834 285.495,382.834 285.495,381.678 
		275.502,381.678 275.502,381.671 268.668,381.671 	"/>
	<polygon style="fill:#242D3C;" points="275.502,398.247 268.668,398.247 268.668,399.403 278.673,399.403 278.673,398.382 
		275.502,398.382 	"/>
	<rect x="268.67" y="414.81" style="fill:#242D3C;" width="10.01" height="1.163"/>
	<rect x="268.67" y="431.38" style="fill:#242D3C;" width="10.01" height="1.166"/>
	<rect x="268.67" y="447.95" style="fill:#242D3C;" width="10.01" height="1.15"/>
	<rect x="268.67" y="464.52" style="fill:#242D3C;" width="10.01" height="1.159"/>
	<rect x="268.67" y="481.08" style="fill:#242D3C;" width="10.01" height="1.146"/>
	<rect x="268.67" y="497.64" style="fill:#242D3C;" width="10.01" height="1.173"/>
	<polygon style="fill:#242D3C;" points="273.669,208.612 278.673,208.612 278.677,208.612 278.677,207.955 278.673,207.955 
		273.669,207.955 	"/>
	<polygon style="fill:#242D3C;" points="273.669,225.181 278.673,225.181 278.677,225.181 278.677,224.517 278.673,224.517 
		273.669,224.517 	"/>
	<polygon style="fill:#242D3C;" points="273.669,241.756 278.673,241.756 278.677,241.756 278.677,241.083 278.673,241.083 
		273.669,241.083 	"/>
	<polygon style="fill:#242D3C;" points="273.669,258.322 278.673,258.322 278.677,258.322 278.677,257.665 278.673,257.665 
		273.669,257.665 	"/>
	<rect x="273.67" y="274.23" style="fill:#242D3C;" width="1.833" height="0.664"/>
	<polygon style="fill:#242D3C;" points="273.669,291.457 275.502,291.457 275.502,291.457 280.5,291.457 280.5,290.796 
		275.502,290.796 275.502,290.79 273.669,290.79 	"/>
	<polygon style="fill:#242D3C;" points="273.669,308.026 275.502,308.026 278.677,308.026 280.5,308.026 280.5,307.359 
		278.677,307.359 275.502,307.359 273.669,307.359 	"/>
	<polygon style="fill:#242D3C;" points="273.669,324.591 275.502,324.591 275.502,324.585 280.5,324.585 280.5,323.934 
		278.677,323.934 275.502,323.934 273.669,323.934 	"/>
	<polygon style="fill:#242D3C;" points="273.669,341.16 275.502,341.16 278.677,341.16 280.5,341.16 280.5,340.497 278.677,340.497 
		275.502,340.497 273.669,340.497 	"/>
	<polygon style="fill:#242D3C;" points="273.669,357.736 275.502,357.736 278.677,357.736 280.5,357.736 280.5,357.069 
		275.502,357.069 275.502,357.059 273.669,357.059 	"/>
	<polygon style="fill:#242D3C;" points="273.669,374.295 275.502,374.295 275.502,374.302 280.5,374.302 280.5,373.638 
		278.677,373.638 275.502,373.638 273.669,373.638 	"/>
	<rect x="273.67" y="390.19" style="fill:#242D3C;" width="1.833" height="0.671"/>
	<polygon style="fill:#242D3C;" points="273.669,407.436 278.673,407.436 278.677,407.436 278.677,406.769 278.673,406.769 
		273.669,406.769 	"/>
	<polygon style="fill:#242D3C;" points="273.669,424.012 278.673,424.012 278.677,424.012 278.677,423.348 278.673,423.348 
		273.669,423.348 	"/>
	<polygon style="fill:#242D3C;" points="273.669,440.574 278.673,440.574 278.677,440.574 278.677,439.91 278.673,439.91 
		273.669,439.91 	"/>
	<polygon style="fill:#242D3C;" points="273.669,457.137 278.673,457.137 278.677,457.137 278.677,456.483 278.673,456.483 
		273.669,456.483 	"/>
	<polygon style="fill:#242D3C;" points="273.669,473.716 278.673,473.716 278.677,473.716 278.677,473.045 278.673,473.045 
		273.669,473.045 	"/>
	<polygon style="fill:#242D3C;" points="273.669,490.278 278.673,490.278 278.677,490.278 278.677,489.614 278.673,489.614 
		273.669,489.614 	"/>
	<polygon style="fill:#242D3C;" points="273.669,506.854 278.673,506.854 278.677,506.854 278.677,506.183 278.673,506.183 
		273.669,506.183 	"/>
</g>
<polygon style="fill:#D9D8D7;" points="236.501,266.858 233.323,266.858 218.726,266.858 156.117,266.858 170.678,281.405 
	218.726,281.405 218.726,295.959 218.726,329.124 218.726,350.657 218.726,398.382 233.323,398.382 236.501,398.382 "/>
<rect x="213.34" y="329.12" style="fill:#FFFFFF;" width="5.391" height="21.534"/>
<path style="fill:#FF6D3B;" d="M414.367,228.286c0-15.941-12.912-28.867-28.867-28.867c-15.951,0-28.857,12.926-28.857,28.867
	s12.906,28.867,28.857,28.867C401.454,257.153,414.367,244.227,414.367,228.286z"/>
<g>
</g>
<g>
</g>
<g>
</g>
<g>
</g>
<g>
</g>
<g>
</g>
<g>
</g>
<g>
</g>
<g>
</g>
<g>
</g>
<g>
</g>
<g>
</g>
<g>
</g>
<g>
</g>
<g>
</g>
</svg>
