<?xml version="1.0" encoding="iso-8859-1"?>
<!-- Generator: Adobe Illustrator 19.0.0, SVG Export Plug-In . SVG Version: 6.00 Build 0)  -->
<svg version="1.1" id="Layer_1" xmlns="http://www.w3.org/2000/svg" xmlns:xlink="http://www.w3.org/1999/xlink" x="0px" y="0px"
	 viewBox="0 0 512 512" style="enable-background:new 0 0 512 512;" xml:space="preserve">
<circle style="fill:#F2F2F2;" cx="256" cy="256" r="256"/>
<g>
	<path style="fill:#3E4959;" d="M354.918,394.491c0,3.221-2.603,5.84-5.817,5.84c-3.234,0-5.84-2.619-5.84-5.84
		c0-3.207,2.603-5.827,5.84-5.827C352.315,388.664,354.918,391.284,354.918,394.491z"/>
	<rect x="182.239" y="386.543" style="fill:#3E4959;" width="150.934" height="15.915"/>
</g>
<g>
	<path style="fill:#242D3C;" d="M333.19,402.452v-15.915h13.781c0.552,0,1.093,0.208,1.503,0.624
		c0.413,0.419,0.628,0.948,0.628,1.503v11.664c0,0.542-0.215,1.077-0.628,1.496c-0.41,0.419-0.951,0.624-1.503,0.624H333.19V402.452
		z"/>
	<polygon style="fill:#242D3C;" points="161.234,396.387 161.234,392.605 182.255,386.537 182.255,402.452 	"/>
</g>
<polygon style="fill:#3E4959;" points="157.085,394.864 157.085,394.141 161.234,393.008 161.234,395.987 "/>
<path style="fill:#242D3C;" d="M201.804,402.799c0,0.182,0.073,0.373,0.211,0.509c0.132,0.129,0.307,0.211,0.492,0.211h34.033
	c0.185,0,0.36-0.083,0.489-0.211c0.155-0.135,0.218-0.33,0.218-0.509v-0.347h-35.444V402.799z"/>
<rect x="406.99" y="228.814" style="fill:#FF6D3B;" width="15.106" height="54.361"/>
<path style="fill:#242D3C;" d="M407.004,347.057c0,3.885-1.483,7.769-4.449,10.729c-2.96,2.966-6.848,4.446-10.729,4.446H105
	V149.768h286.826c3.881,0,7.772,1.483,10.729,4.453c2.963,2.956,4.449,6.844,4.449,10.729V347.057L407.004,347.057z"/>
<rect x="155.846" y="180.125" style="fill:#3E4959;" width="220.811" height="151.76"/>
<polygon style="fill:#465365;" points="197.698,180.122 155.84,180.122 155.84,331.885 349.455,331.885 "/>
<path style="fill:#CCCBCA;" d="M361.548,317.605H170.942c-0.456,0-0.826-0.373-0.826-0.826V195.227c0-0.459,0.37-0.826,0.826-0.826
	h190.606c0.456,0,0.826,0.367,0.826,0.826v121.552C362.374,317.232,362.004,317.605,361.548,317.605z M171.768,315.954h188.954
	v-119.9H171.768V315.954z"/>
<path style="fill:#3E4959;" d="M147.109,256c0,9.213-7.465,16.711-16.691,16.711c-9.223,0-16.695-7.498-16.695-16.711
	c0-9.206,7.472-16.698,16.695-16.698C139.644,239.302,147.109,246.794,147.109,256z"/>
<path style="fill:#242D3C;" d="M137.573,256c0,3.974-3.204,7.168-7.155,7.168c-3.947,0-7.155-3.194-7.155-7.168
	c0-3.941,3.207-7.155,7.155-7.155C134.372,248.845,137.573,252.059,137.573,256z"/>
<g>
	<rect x="122.847" y="180.125" style="fill:#3E4959;" width="15.178" height="9.104"/>
	<rect x="122.847" y="196.443" style="fill:#3E4959;" width="15.178" height="9.11"/>
	<rect x="122.847" y="212.761" style="fill:#3E4959;" width="15.178" height="9.097"/>
	<rect x="122.847" y="290.155" style="fill:#3E4959;" width="15.178" height="9.104"/>
	<rect x="122.847" y="306.473" style="fill:#3E4959;" width="15.178" height="9.104"/>
	<rect x="122.847" y="322.791" style="fill:#3E4959;" width="15.178" height="9.104"/>
</g>
<g>
</g>
<g>
</g>
<g>
</g>
<g>
</g>
<g>
</g>
<g>
</g>
<g>
</g>
<g>
</g>
<g>
</g>
<g>
</g>
<g>
</g>
<g>
</g>
<g>
</g>
<g>
</g>
<g>
</g>
</svg>
