<?xml version="1.0" encoding="iso-8859-1"?>
<!-- Generator: Adobe Illustrator 19.0.0, SVG Export Plug-In . SVG Version: 6.00 Build 0)  -->
<svg version="1.1" id="Layer_1" xmlns="http://www.w3.org/2000/svg" xmlns:xlink="http://www.w3.org/1999/xlink" x="0px" y="0px"
	 viewBox="0 0 512 512" style="enable-background:new 0 0 512 512;" xml:space="preserve">
<circle style="fill:#F2F2F2;" cx="256" cy="256" r="256"/>
<path style="fill:#FFD55C;" d="M360.134,197.847c0,57.536-46.632,104.141-104.154,104.141c-57.503,0-104.118-46.605-104.118-104.141
	c0-57.483,46.612-104.134,104.118-104.134C313.503,93.709,360.134,140.361,360.134,197.847z"/>
<path style="fill:#FFB733;" d="M330.96,197.847c0,41.413-33.567,74.96-74.973,74.96c-41.393,0-74.947-33.548-74.947-74.96
	c0-41.373,33.554-74.96,74.947-74.96C297.393,122.883,330.96,156.471,330.96,197.847z"/>
<rect x="219.004" y="295.242" style="fill:#FFD55C;" width="73.963" height="16.173"/>
<path style="fill:#FFFFFF;" d="M310.156,203.845v-12.007h-9.497c-0.509-3.898-1.529-7.614-2.96-11.122l8.192-4.737l-5.999-10.418
	l-8.212,4.757c-2.362-3.062-5.084-5.794-8.123-8.146l4.737-8.232l-10.425-5.999l-4.743,8.202c-3.511-1.437-7.237-2.448-11.122-2.963
	v-9.493h-12.001v9.493c-3.895,0.515-7.617,1.533-11.122,2.963l-4.747-8.202l-10.418,5.999l4.753,8.232
	c-3.059,2.352-5.781,5.084-8.139,8.146l-8.222-4.757l-6.002,10.418l8.195,4.737c-1.434,3.511-2.431,7.227-2.96,11.122h-9.493v12.007
	h9.493c0.529,3.904,1.529,7.621,2.963,11.135l-8.199,4.727l6.002,10.428l8.222-4.76c2.365,3.059,5.094,5.787,8.139,8.149
	l-4.753,8.225l10.412,5.992l4.747-8.202c3.508,1.437,7.227,2.441,11.125,2.97v9.487h11.997v-9.484
	c3.885-0.532,7.607-1.539,11.122-2.97l4.743,8.199l10.425-5.992l-4.743-8.225c3.046-2.372,5.767-5.1,8.136-8.149l8.205,4.76
	l6.018-10.428l-8.212-4.734c1.434-3.511,2.451-7.231,2.966-11.129L310.156,203.845L310.156,203.845z M256,226.38
	c-15.77,0-28.54-12.764-28.54-28.53c0-15.773,12.767-28.55,28.54-28.55c15.766,0,28.533,12.774,28.533,28.55
	C284.537,213.616,271.766,226.38,256,226.38z"/>
<rect x="211.255" y="311.428" style="fill:#3E4959;" width="89.418" height="37.178"/>
<polygon style="fill:#CCCBCA;" points="211.255,402.871 255.977,447.587 300.683,402.871 "/>
<polygon style="fill:#242D3C;" points="233.614,425.231 255.977,447.587 278.33,425.231 "/>
<rect x="211.255" y="348.589" style="fill:#21D8DE;" width="29.828" height="54.275"/>
<rect x="241.066" y="348.589" style="fill:#16C6CC;" width="29.828" height="54.275"/>
<rect x="270.865" y="348.589" style="fill:#06B2B8;" width="29.795" height="54.275"/>
<g>
	<path style="fill:#242D3C;" d="M294.806,311.418h-3.676v-17.484l1.186-0.446c39.464-15.003,65.975-53.433,65.975-95.645
		c0-56.406-45.898-102.304-102.307-102.304c-56.393,0-102.274,45.898-102.274,102.304c0,42.215,26.505,80.652,65.965,95.645
		l1.179,0.449v17.481h-3.676v-14.944c-40.217-15.849-67.155-55.319-67.155-98.628c0-58.437,47.533-105.981,105.961-105.981
		c58.451,0,105.997,47.543,105.997,105.981c0,43.309-26.941,82.772-67.174,98.624L294.806,311.418L294.806,311.418z"/>
	<rect x="203.479" y="309.578" style="fill:#242D3C;" width="105.019" height="3.68"/>
	<rect x="203.479" y="321.965" style="fill:#242D3C;" width="105.019" height="3.68"/>
	<rect x="203.479" y="334.353" style="fill:#242D3C;" width="105.019" height="3.686"/>
	<rect x="203.479" y="346.74" style="fill:#242D3C;" width="105.019" height="3.683"/>
	<rect x="151.866" y="91.889" style="fill:#242D3C;" width="208.268" height="3.676"/>
</g>
<g>
	<rect x="248.337" y="86.082" style="fill:#FFFFFF;" width="15.307" height="15.301"/>
	<rect x="352.487" y="190.233" style="fill:#FFFFFF;" width="15.31" height="15.301"/>
	<rect x="144.216" y="190.233" style="fill:#FFFFFF;" width="15.304" height="15.301"/>
</g>
<g>
	<path style="fill:#242D3C;" d="M265.49,103.226h-18.984V84.232h18.984V103.226z M250.19,99.543h11.624V87.915H250.19V99.543z"/>
	<path style="fill:#242D3C;" d="M369.631,207.363h-18.994v-18.99h18.994V207.363z M354.317,203.684h11.627v-11.631h-11.627V203.684z
		"/>
	<path style="fill:#242D3C;" d="M161.356,207.363h-18.987v-18.99h18.987V207.363z M146.052,203.684h11.627v-11.631h-11.627V203.684z
		"/>
	<path style="fill:#242D3C;" d="M159.519,93.729c0,4.235-3.425,7.65-7.65,7.65c-4.225,0-7.65-3.416-7.65-7.65
		c0-4.225,3.425-7.647,7.65-7.647C156.094,86.082,159.519,89.504,159.519,93.729z"/>
	<path style="fill:#242D3C;" d="M367.788,93.729c0,4.235-3.425,7.65-7.65,7.65c-4.231,0-7.657-3.416-7.657-7.65
		c0-4.225,3.425-7.647,7.657-7.647C364.362,86.082,367.788,89.504,367.788,93.729z"/>
</g>
<g>
</g>
<g>
</g>
<g>
</g>
<g>
</g>
<g>
</g>
<g>
</g>
<g>
</g>
<g>
</g>
<g>
</g>
<g>
</g>
<g>
</g>
<g>
</g>
<g>
</g>
<g>
</g>
<g>
</g>
</svg>
